<?xml version="1.0" standalone="no"?>
<!DOCTYPE svg PUBLIC "-//W3C//DTD SVG 20010904//EN"
 "http://www.w3.org/TR/2001/REC-SVG-20010904/DTD/svg10.dtd">
<svg version="1.0" xmlns="http://www.w3.org/2000/svg"
 width="358.000000pt" height="358.000000pt" viewBox="0 0 358.000000 358.000000"
 preserveAspectRatio="xMidYMid meet">
<metadata>
Created by potrace 1.11, written by Peter Selinger 2001-2013
</metadata>
<g transform="translate(0.000000,358.000000) scale(0.100000,-0.100000)"
fill="#000000" stroke="none">
<path d="M1725 3532 c-2 -3 -19 -6 -37 -8 -118 -9 -198 -45 -286 -129 -82 -78
-99 -85 -256 -100 -59 -6 -110 -21 -146 -44 -32 -19 -102 -81 -93 -81 4 0 -1
-6 -12 -13 -14 -11 -15 -16 -5 -22 10 -6 238 -8 676 -5 32 0 48 7 79 36 47 42
161 113 225 138 55 21 183 55 230 61 84 11 209 5 273 -13 20 -6 37 -9 37 -7 0
2 29 -7 64 -20 35 -13 66 -21 70 -18 3 4 6 1 6 -5 0 -7 7 -12 15 -12 8 0 15 3
15 6 0 7 -27 34 -35 34 -8 0 -69 43 -73 53 -2 4 -12 7 -23 7 -10 0 -19 5 -19
10 0 6 -5 10 -10 10 -6 0 -29 9 -53 19 -136 63 -259 88 -472 96 -66 3 -130 7
-142 9 -13 2 -25 1 -28 -2z"/>
<path d="M2035 3288 c-38 -10 -77 -20 -87 -23 -9 -2 -30 -11 -47 -19 -17 -9
-33 -16 -36 -15 -9 1 -157 -93 -152 -97 2 -2 64 -4 138 -5 118 -1 219 -9 284
-23 74 -16 284 -101 320 -129 6 -4 46 -34 90 -66 67 -49 170 -144 210 -193 63
-77 101 -130 122 -172 33 -65 71 -167 78 -208 3 -18 8 -40 11 -49 2 -10 6 -30
9 -45 2 -16 7 -51 10 -79 10 -68 6 -310 -5 -310 -1 0 -3 -7 -5 -15 -1 -8 -8
-35 -15 -60 -7 -25 -14 -56 -17 -69 -2 -13 -8 -32 -13 -41 -5 -10 -6 -20 -3
-24 3 -3 2 -6 -4 -6 -5 0 -10 -6 -10 -12 0 -7 -8 -31 -18 -53 -10 -22 -17 -44
-16 -49 1 -5 -2 -12 -6 -15 -13 -9 -48 -80 -42 -85 10 -11 239 203 239 223 0
6 5 11 11 11 5 0 7 5 4 10 -3 6 -2 10 4 10 5 0 20 17 32 38 13 20 26 39 30 42
3 3 27 48 52 100 50 105 74 201 78 305 1 27 -11 153 -17 175 -4 14 -9 42 -11
63 -3 20 -9 40 -14 43 -5 3 -9 16 -9 30 0 13 -4 32 -9 42 -5 9 -14 31 -21 47
-40 99 -141 264 -198 323 -15 16 -48 51 -73 78 -103 109 -197 178 -321 237
-64 30 -113 51 -113 47 0 -1 -18 6 -40 15 -21 10 -53 19 -70 21 -16 2 -41 7
-55 10 -59 14 -226 9 -295 -8z"/>
<path d="M895 3062 c-2 -2 -69 -5 -147 -5 -79 0 -154 -4 -168 -10 -14 -6 -28
-10 -32 -9 -7 2 -64 -53 -83 -79 -5 -8 -11 -26 -13 -41 -2 -24 1 -28 23 -26
14 1 25 5 25 8 0 3 11 7 25 8 20 1 25 -3 25 -22 0 -18 -7 -25 -27 -28 -48 -8
-57 -12 -80 -35 -39 -40 -40 -78 -3 -173 12 -30 26 -67 32 -82 5 -16 12 -28
14 -28 3 0 22 9 44 20 57 29 186 40 285 26 32 -5 51 -15 70 -37 28 -34 30 -47
14 -82 -12 -26 -70 -64 -110 -71 -13 -3 -25 -5 -26 -6 -8 -5 -73 -2 -103 5
-47 10 -83 29 -125 66 -19 17 -41 29 -48 26 -19 -7 -43 -103 -41 -162 3 -88
18 -142 56 -204 20 -31 22 -33 35 -15 7 10 13 14 13 10 0 -5 9 3 20 16 23 29
81 55 142 64 24 3 133 7 243 9 213 4 269 9 325 27 50 17 170 97 170 114 0 8 5
14 11 14 14 0 66 116 74 165 12 74 12 99 -3 155 -7 30 -16 64 -19 75 -4 19 1
21 54 23 76 3 93 5 93 12 0 3 14 11 30 18 34 16 110 87 111 105 0 7 3 25 5 41
7 40 -12 81 -44 97 -37 18 -622 20 -622 2 0 -6 -9 -18 -20 -26 -11 -8 -17 -17
-13 -20 3 -4 -1 -8 -10 -8 -9 -1 -27 -2 -39 -3 -28 -3 -78 30 -78 50 0 8 -6
14 -12 15 -7 1 -25 2 -40 3 -15 2 -30 1 -33 -2z"/>
<path d="M1854 3059 c-3 -6 0 -17 7 -25 7 -8 13 -32 14 -52 2 -28 8 -40 26
-49 30 -14 83 -35 87 -34 6 3 138 -73 144 -83 5 -7 8 -7 8 -1 0 7 3 7 8 0 4
-5 28 -27 54 -47 25 -21 67 -66 93 -100 25 -35 51 -70 58 -78 7 -9 29 -50 50
-93 39 -80 62 -158 72 -241 3 -27 8 -52 11 -57 3 -5 1 -9 -4 -9 -6 0 -8 -8 -5
-18 3 -15 -8 -80 -28 -151 -10 -34 -90 -191 -123 -240 -20 -29 -36 -55 -36
-58 0 -2 -6 -10 -12 -17 -7 -7 -35 -39 -63 -71 -27 -32 -73 -82 -102 -112 -29
-30 -53 -56 -53 -58 0 -3 -10 -16 -21 -29 -24 -28 -46 -62 -55 -88 -3 -10 -10
-18 -15 -18 -5 0 -8 -3 -7 -7 1 -5 -8 -29 -19 -54 -29 -63 -51 -176 -46 -235
2 -27 4 -59 3 -72 0 -12 4 -22 9 -22 11 0 134 60 141 69 3 3 10 7 15 8 6 1 53
21 105 46 197 91 236 108 258 113 8 1 21 8 30 16 10 7 43 27 75 43 59 30 159
119 208 185 31 42 64 102 61 113 -1 4 2 7 7 7 8 0 20 24 26 50 1 3 9 23 19 45
16 35 20 50 29 99 1 6 5 13 8 16 6 5 13 36 26 120 8 52 11 314 3 325 -3 6 -7
26 -9 46 -9 139 -96 323 -213 451 -18 20 -40 44 -48 55 -55 65 -274 222 -323
231 -4 1 -20 8 -35 15 -50 26 -151 56 -207 62 -16 2 -30 4 -30 5 0 8 -196 7
-201 -1z"/>
<path d="M1850 2873 c0 -5 -11 -20 -24 -34 -43 -46 -48 -64 -23 -85 27 -23 39
-42 76 -119 25 -53 33 -75 48 -135 8 -32 2 -265 -7 -265 -1 0 -3 -8 -6 -17 -6
-27 -10 -42 -17 -58 -3 -8 -13 -37 -23 -65 -36 -98 -132 -250 -213 -336 -20
-21 -52 -57 -71 -80 -19 -23 -46 -54 -59 -68 -98 -107 -281 -376 -292 -429 -3
-12 -10 -35 -25 -75 -8 -21 -12 -43 -9 -48 4 -5 2 -9 -3 -9 -18 0 -20 -230 -1
-270 1 -3 3 -9 4 -15 11 -57 78 -176 132 -234 l31 -35 26 25 c14 13 26 28 26
32 0 13 27 37 34 30 3 -4 6 0 6 7 0 15 87 99 172 166 62 48 182 130 200 136
12 4 19 66 9 73 -13 8 5 224 21 250 3 6 9 25 13 42 3 18 11 33 16 33 5 0 8 3
7 8 -2 7 18 51 48 105 8 15 20 27 26 27 6 0 9 3 5 6 -7 7 45 74 103 135 33 34
92 102 132 153 10 11 22 27 28 34 6 6 8 12 5 12 -3 0 6 11 21 25 15 14 24 25
20 25 -4 0 5 16 20 35 14 19 23 35 20 35 -4 0 2 13 13 29 12 16 21 33 21 39 0
5 7 22 15 39 8 16 17 40 19 54 2 13 5 24 6 24 5 0 11 76 11 140 0 97 -7 133
-42 210 -12 28 -23 53 -23 57 -2 14 -61 108 -68 108 -4 0 -8 6 -8 13 0 8 -12
26 -27 40 -16 15 -41 40 -58 57 -35 37 -91 77 -158 115 -75 41 -177 75 -177
58z"/>
<path d="M1700 2740 c0 -7 -41 -20 -80 -25 -19 -2 -29 -18 -22 -33 8 -15 9
-167 2 -167 -1 0 -3 -12 -4 -27 -1 -15 -5 -30 -9 -34 -4 -4 -7 -15 -7 -25 0
-9 -3 -19 -7 -21 -5 -1 -16 -19 -26 -38 -28 -56 -196 -219 -219 -212 -4 1 -8
-2 -8 -7 0 -5 -26 -24 -57 -42 -32 -18 -61 -37 -64 -42 -3 -5 -10 -8 -14 -6
-9 2 -81 -40 -106 -63 -11 -10 -22 -19 -26 -19 -12 -2 -98 -62 -101 -71 -2 -4
-8 -8 -13 -8 -9 0 -44 -27 -81 -62 -10 -10 -20 -18 -22 -18 -8 0 -136 -129
-136 -137 0 -5 -9 -15 -20 -23 -11 -8 -20 -18 -20 -23 0 -5 -11 -23 -24 -40
-25 -33 -66 -115 -70 -139 -1 -7 -4 -17 -8 -23 -3 -5 -13 -41 -23 -80 -25 -99
-25 -228 -1 -345 3 -14 8 -38 12 -55 15 -77 117 -305 136 -305 5 0 6 -4 3 -10
-3 -5 -2 -10 2 -10 5 0 17 -15 28 -32 10 -18 23 -37 27 -43 53 -67 86 -104
163 -180 103 -103 151 -145 164 -145 5 0 11 -4 13 -8 2 -5 32 -28 68 -53 36
-24 67 -47 70 -50 6 -7 46 -29 54 -29 3 0 0 14 -6 31 -20 56 -5 176 30 250 18
37 32 72 32 77 0 6 -12 20 -26 31 -15 12 -24 21 -20 21 3 0 -2 9 -12 19 -48
54 -77 107 -111 207 -26 75 -29 98 -29 202 0 64 4 122 8 127 4 6 7 17 8 25 1
36 90 240 104 240 4 0 8 6 8 12 0 14 70 121 83 126 4 2 7 10 7 17 0 7 3 15 8
17 4 2 26 28 49 58 23 30 54 69 70 87 15 17 48 55 73 83 25 29 50 57 55 64 9
9 74 95 122 162 26 35 81 141 101 196 33 89 45 159 44 258 0 69 -2 81 -21 149
-21 74 -110 201 -141 201 -5 0 -10 -4 -10 -10z"/>
</g>
</svg>
